<?xml version="1.0" encoding="UTF-8" standalone="no"?> <svg xmlns="http://www.w3.org/2000/svg" xmlns:xlink="http://www.w3.org/1999/xlink" viewBox="0 0 70.03 62"><defs><style>.cls-1{isolation:isolate;}.cls-2{fill:none;}.cls-3{opacity:0.15;mix-blend-mode:multiply;fill:url(#Degradado_sin_nombre_5);}.cls-4{fill:#babab4;}.cls-5{fill:#b8b8b1;}.cls-6{fill:#cacac5;}.cls-7{fill:#5e5e59;opacity:0.3;}.cls-8{fill:#a6a69f;}.cls-9{fill:#b0b0aa;}.cls-10{fill:#8a8a85;}.cls-11{fill:#a6a69e;}.cls-12{fill:#a1a19d;}</style><linearGradient id="Degradado_sin_nombre_5" x1="52.59" y1="58.46" x2="35.5" y2="28.31" gradientUnits="userSpaceOnUse"><stop offset="0" stop-opacity="0"/><stop offset="0.13" stop-opacity="0.34"/><stop offset="1"/></linearGradient></defs><title>3d_trash_can_empting copia</title><g class="cls-1"><g id="Layer_1" data-name="Layer 1"><polygon class="cls-2" points="0 40.54 0.02 40.54 0.02 40.54 0.02 40.45 0 40.45 0 40.54"/><polygon class="cls-2" points="18.51 29.76 18.5 29.76 18.5 29.77 18.49 29.76 18.5 29.77 18.5 29.85 18.51 29.85 18.51 29.84 18.51 29.85 18.51 29.84 18.51 29.76"/><polygon class="cls-2" points="0.19 40.85 0.19 40.9 0.24 40.9 0.24 40.9 0.24 40.85 0.19 40.85 0.19 40.85"/><polygon class="cls-3" points="46.22 35.03 23.91 48.02 47.65 62 70.03 49.05 46.22 35.03"/><polygon class="cls-3" points="46.22 35.03 23.91 48.02 47.65 62 70.03 49.05 46.22 35.03"/><polygon class="cls-2" points="0.31 40.56 0.33 40.56 0.33 40.56 0.33 40.47 0.31 40.47 0.31 40.56"/><polygon class="cls-2" points="18.65 29.83 18.64 29.83 18.64 29.84 18.64 29.83 18.64 29.84 18.64 29.91 18.65 29.91 18.65 29.91 18.66 29.91 18.65 29.9 18.65 29.83"/><polygon class="cls-2" points="0.51 40.87 0.51 40.92 0.55 40.92 0.55 40.92 0.55 40.87 0.51 40.87 0.51 40.87"/><path class="cls-4" d="M43.56,25.14c7.64-4.29,19.85-4.16,27.28.28s7.25,11.51-.39,15.8-19.85,4.16-27.28-.28S35.92,29.42,43.56,25.14Z" transform="translate(-22.18 -22)"/><g class="cls-1"><path class="cls-5" d="M46.23,70.24a11.07,11.07,0,0,1-3.77-3.53,7.56,7.56,0,0,1-1.2-4.06c0,2.28,1.46,4.57,4.43,6.34,6,3.6,15.93,3.7,22.13.22,3.15-1.77,4.74-4.12,4.74-6.48a7.36,7.36,0,0,1-.72,3.14,9.35,9.35,0,0,1-1.93,2.64,15.09,15.09,0,0,1-6.55,3.53,24.49,24.49,0,0,1-8.88.74,23,23,0,0,1-4.31-.84A17.36,17.36,0,0,1,46.23,70.24Z" transform="translate(-22.18 -22)"/></g><path class="cls-6" d="M70.51,40.39c-7.68,4.31-20,4.19-27.43-.28h0c-3.32-2-5.13-4.5-5.44-7L41.29,63.3c.25,2,1.69,4.06,4.34,5.66l0,0c6,3.6,15.93,3.7,22.13.22,2.86-1.6,4.43-3.69,4.7-5.83l3.82-30.22C76,35.82,74.06,38.4,70.51,40.39Z" transform="translate(-22.18 -22)"/><path class="cls-7" d="M52.24,45.24c-1.1-.12-1.77.32-1.79,1.18l.9,21.19c.16,1.71,2.11,2.34,2.9,1.29a1.35,1.35,0,0,0,.26-.81L54.16,47c-.09-1.16-1.29-1.64-1.92-1.74" transform="translate(-22.18 -22)"/><path class="cls-7" d="M61.8,45.25A2.1,2.1,0,0,0,59.87,47l-.49,21.11c0,1.5,1.74,1.73,2.66.69a1.92,1.92,0,0,0,.5-1.16l1-21.19c0-1.14-1.12-1.28-1.78-1.18" transform="translate(-22.18 -22)"/><path class="cls-7" d="M43.68,42.45c-.86-.45-1.31-.21-1.26.67L44.51,64.8c.23,1.81,1.74,3,2.32,2.15A1.22,1.22,0,0,0,47,66.2L45.34,44.77a3.43,3.43,0,0,0-1.66-2.32" transform="translate(-22.18 -22)"/><path class="cls-7" d="M69.62,42.86a3.25,3.25,0,0,0-1.71,2.26L66.22,66.51c0,1.15.84,1.32,1.59.65a3.24,3.24,0,0,0,1-2l2.13-21.61c.08-1.39-1.18-.79-1.32-.71" transform="translate(-22.18 -22)"/><path class="cls-8" d="M45.39,25.59c-6.6,3.54-6.75,9.39-.33,13.06,3.94,2.25,9.43,3.15,14.61,2.7V23.14A26.24,26.24,0,0,0,45.39,25.59Z" transform="translate(-22.18 -22)"/><path class="cls-9" d="M69,25.82a23.21,23.21,0,0,0-9.29-2.69V41.35a23.51,23.51,0,0,0,9-2.47C75.22,35.34,75.37,29.49,69,25.82Z" transform="translate(-22.18 -22)"/><path class="cls-6" d="M86.95,39.53c4.89,8.71,4.75,22.65-.31,31.12s-13.13,8.27-18-.44-4.75-22.65.31-31.12S82.06,30.81,86.95,39.53Z" transform="translate(-22.18 -22)"/><g class="cls-1"><polygon class="cls-10" points="60.19 28.61 61.01 30.02 57.74 30.01 56.92 28.6 60.19 28.61"/><path class="cls-11" d="M86.19,48.4,87,49.81a1.51,1.51,0,0,1-.15,1.52L86,49.92A1.5,1.5,0,0,0,86.19,48.4Z" transform="translate(-22.18 -22)"/><polygon class="cls-10" points="55.27 38.54 56.09 39.95 52.01 39.94 51.19 38.53 55.27 38.54"/><polygon class="cls-12" points="63.85 27.91 64.67 29.32 59.76 37.83 58.94 36.42 63.85 27.91"/><path class="cls-12" d="M81.12,58.43l.82,1.41A4.67,4.67,0,0,1,78.27,62l-.82-1.41A4.67,4.67,0,0,0,81.12,58.43Z" transform="translate(-22.18 -22)"/><path class="cls-5" d="M81.12,58.43a4.67,4.67,0,0,1-3.67,2.12H73.37L75,57.7h3.26l4.1-7.09H79.11l1.64-2.84h4.08c1.35,0,1.89,1,1.21,2.14Z" transform="translate(-22.18 -22)"/></g><path class="cls-5" d="M68.92,39.09c2.49-4.17,5.71-6.23,8.92-6.23H72.95c-3.21,0-6.43,2.06-8.92,6.23a24.86,24.86,0,0,0-2.25,5h4.9A24.85,24.85,0,0,1,68.92,39.09Z" transform="translate(-22.18 -22)"/><path class="cls-11" d="M68.61,70.2c-4-7.15-4.63-17.82-1.93-26.09h-4.9C59.09,52.39,59.7,63,63.72,70.19c2.49,4.43,5.79,6.66,9.11,6.67h4.89C74.4,76.86,71.09,74.63,68.61,70.2Z" transform="translate(-22.18 -22)"/></g></g></svg>